<?xml version="1.0" encoding="iso-8859-1"?>
<!-- Uploaded to: SVG Repo, www.svgrepo.com, Generator: SVG Repo Mixer Tools -->
<svg height="800px" width="800px" version="1.1" id="Layer_1" xmlns="http://www.w3.org/2000/svg" xmlns:xlink="http://www.w3.org/1999/xlink" 
	 viewBox="0 0 512 512" xml:space="preserve">
<circle style="fill:#E05B49;" cx="256" cy="256" r="256"/>
<path style="opacity:0.1;enable-background:new    ;" d="M351.579,140.005l-1.008-1.008l-0.139,0.021
	c-3.989-3.328-8.821-5.627-14.16-6.597l-8.149-8.149l-0.043,0.037c-5.093-4.981-12.027-8.048-19.488-8.048
	c-2.773,0-5.493,0.427-8.107,1.227c-4.107-5.067-10.4-8.16-17.12-8.16c-12.053,0-21.813,9.653-21.813,21.44v2.453l-16.891-16.891
	c-0.389-0.416-0.779-0.816-1.2-1.2l-0.507-0.507l-0.043,0.059c-3.829-3.291-8.779-5.355-14.267-5.355
	c-6.72,0-13.013,3.093-17.12,8.16c-2.613-0.8-5.333-1.227-8.107-1.227c-10.773,0-20.533,6.293-25.067,15.68
	c-14.987,1.387-26.933,13.493-27.627,28.48c-14.293,2.507-25.173,14.773-25.173,29.547c0,3.573,0.64,7.093,1.867,10.4
	c-11.253,7.787-18.08,20.533-18.08,34.293c0,7.52,1.973,14.72,5.813,21.12c-3.787,5.76-5.813,12.533-5.813,19.413
	c0,12.32,6.4,23.573,16.747,30.08c-2.773,5.493-4.267,11.52-4.267,17.707c0,17.813,11.893,33.067,28.853,37.973
	c0.155,7.797,3.349,14.859,8.443,20.128l0.005,0.005c0.347,0.357,0.693,0.715,1.056,1.056l127.797,127.797
	c112.747-14.053,202.704-101.365,220.704-212.843L353.6,142.027C352.96,141.317,352.283,140.656,351.579,140.005z"/>
<path style="fill:#F6C358;" d="M402.667,234.677c0-13.765-6.821-26.501-18.107-34.299c1.248-3.323,1.904-6.853,1.904-10.421
	c0-14.752-10.875-27.051-25.157-29.563c-0.736-14.955-12.645-27.067-27.68-28.432c-4.48-9.397-14.267-15.68-25.024-15.68
	c-2.768,0-5.515,0.411-8.139,1.205c-4.091-5.067-10.368-8.155-17.104-8.155c-12.037,0-21.824,9.627-21.824,21.451v76.731
	c0,9.339,4.235,18.149,11.232,24.149c-7.067,6.352-11.232,15.403-11.232,25.077v47.221c0,5.723,1.44,11.269,4.197,16.24
	c-2.752,4.779-4.197,10.144-4.197,15.723v36.709c0,16.555,13.701,30.032,30.544,30.032c11.019,0,20.939-5.749,26.336-14.805
	c3.867,1.691,8.059,2.565,12.373,2.565c16.651,0,30.235-13.168,30.544-29.461c16.965-4.901,28.832-20.181,28.832-37.995
	c0-6.197-1.451-12.208-4.235-17.669c10.325-6.512,16.731-17.781,16.731-30.123c0-6.875-2.037-13.627-5.803-19.376
	C400.672,249.397,402.667,242.165,402.667,234.677z"/>
<path style="fill:#FCD462;" d="M380.848,295.739c-7.461-12.72-22.4-15.312-30.208-15.723c-1.536-6.352-5.125-12.101-10.379-16.357
	c-2.32-1.877-5.739-1.552-7.632,0.725c-1.904,2.272-1.579,5.637,0.736,7.504c4.629,3.749,7.285,9.275,7.285,15.157
	c0,10.816-8.949,19.616-19.947,19.616c-10.997,0-19.941-8.795-19.941-19.616c0-4.699,1.717-9.237,4.827-12.795
	c0.069-0.08,0.085-0.181,0.155-0.267c1.499-0.219,2.992-0.549,4.464-1.088c11.403-4.181,17.221-16.704,12.976-27.915
	c-1.056-2.763-4.171-4.139-6.981-3.136c-2.805,1.029-4.235,4.107-3.189,6.864c2.16,5.696-0.795,12.069-6.597,14.192
	c-5.808,2.128-12.277-0.784-14.443-6.485c-1.045-2.763-4.176-4.16-6.976-3.131c-2.805,1.024-4.235,4.101-3.184,6.859
	c2.187,5.771,6.645,10.037,11.989,12.299c-2.496,4.448-3.888,9.451-3.888,14.603c0,16.699,13.813,30.283,30.795,30.283
	c15.696,0,28.661-11.616,30.539-26.56c6.683,0.549,18.416,3.083,21.963,14.069c0.16,0.496,0.411,0.928,0.688,1.339
	c0.027,0.037,0.027,0.091,0.053,0.128c3.52,4.901,5.381,10.667,5.381,16.672c0,12.123-7.557,22.587-18.603,26.869
	c-1.739-10.432-8.715-17.221-9.077-17.557c-2.171-2.032-5.6-1.936-7.669,0.197c-2.059,2.133-1.968,5.515,0.203,7.541
	c0.075,0.064,7.061,6.875,6.069,16.219c-0.027,0.235,0.059,0.443,0.064,0.667c0.005,0.229-0.069,0.443-0.032,0.677
	c0.144,0.923,0.219,1.861,0.219,2.816c0,10.677-8.837,19.365-19.701,19.365c-2.64,0-5.184-0.565-7.568-1.547
	c2.411-6.331,2.837-15.851-4.597-26.016c3.589-5.872,3.515-13.536-0.816-19.435c-1.76-2.384-5.152-2.928-7.573-1.2
	c-2.427,1.723-2.971,5.061-1.216,7.445c2.288,3.109,1.573,7.472-1.595,9.723c-3.157,2.251-7.6,1.552-9.893-1.563
	c-1.765-2.389-5.152-2.923-7.573-1.2c-2.432,1.728-2.971,5.061-1.221,7.445c3.504,4.768,9.003,7.296,14.56,7.296
	c2.411,0,4.816-0.523,7.099-1.493c6.779,9.941,1.957,16.923,1.28,17.803c-0.304,0.379-0.448,0.811-0.635,1.232
	c-0.064,0.149-0.197,0.251-0.251,0.4c-2.656,7.973-10.176,13.333-18.715,13.333c-10.859,0-19.696-8.688-19.696-19.365V335.92
	c0-2.619,0.528-5.141,1.445-7.531c4.832,3.136,12.597,6.715,23.285,6.715c0.507,0,1.024-0.005,1.541-0.027
	c2.997-0.096,5.344-2.555,5.243-5.499c-0.096-2.885-2.501-5.163-5.413-5.163c-0.064,0-0.123,0-0.181,0.005
	c-0.405,0.011-0.805,0.016-1.2,0.016c-12.432,0-19.408-6.235-20.688-7.493c-2.629-3.851-4.043-8.325-4.043-12.992v-47.205
	c0-8.587,4.784-16.464,12.48-20.539c0.128-0.069,0.224-0.171,0.347-0.251c0.069-0.043,0.149-0.048,0.219-0.096
	c1.184-0.816,11.909-7.68,23.232,1.803c1.024,0.853,2.272,1.269,3.52,1.269c1.531,0,3.056-0.635,4.133-1.877
	c1.941-2.24,1.669-5.611-0.613-7.52c-12.496-10.459-25.952-7.952-33.467-4.192c-6.053-3.893-9.851-10.619-9.851-17.829v-76.731
	c0-5.947,4.923-10.784,10.976-10.784c3.797,0,7.221,2.032,9.211,5.163c-0.96,4.341-3.243,10.363-6.571,12.299
	c-2.581,1.499-3.429,4.773-1.904,7.307c1.013,1.68,2.816,2.613,4.672,2.613c0.939,0,1.893-0.24,2.757-0.747
	c7.211-4.203,10.315-13.616,11.499-18.624c1.787-0.624,3.653-1.056,5.573-1.056c7.179,0,13.611,4.619,15.872,11.28
	c0.064,2.949-0.123,14.757-6.811,22.117c-2.565,2.832-5.819,4.656-9.808,5.573c-1.216-5.563-5.205-10.411-11.056-12.421
	c-2.8-0.971-5.915,0.496-6.907,3.28c-0.987,2.779,0.507,5.819,3.339,6.789c3.269,1.12,5.003,4.645,3.867,7.856
	c-1.141,3.221-4.72,4.933-7.989,3.803c-2.843-0.965-5.92,0.501-6.907,3.28c-0.987,2.779,0.507,5.824,3.339,6.789
	c1.861,0.635,3.749,0.939,5.616,0.939c6.4,0,12.405-3.573,15.323-9.376c7.888-0.96,14.443-4.048,19.333-9.461
	c6.917-7.659,8.859-17.904,9.36-24.379c8.757,1.968,15.323,9.653,15.323,18.843c0,0.907-0.075,1.808-0.197,2.683
	c-0.053,0.389,0.08,0.763,0.123,1.147c-0.373,3.36-1.861,9.131-4.384,10.736c-2.517,1.6-3.237,4.901-1.611,7.376
	c1.04,1.579,2.779,2.437,4.56,2.437c1.008,0,2.027-0.277,2.939-0.853c5.109-3.243,7.461-9.568,8.539-14.219
	c8.667,2.032,15.147,9.659,15.147,18.789c0,1.627-0.224,3.237-0.635,4.805c-9.333-4.192-24.491-6.363-40.208,3.808
	c-4.587-2.939-9.952-4.416-15.493-4.069c-6.779,0.443-12.981,3.451-17.461,8.485c-1.968,2.213-1.744,5.584,0.512,7.525
	c2.245,1.931,5.669,1.717,7.653-0.507c2.565-2.88,6.117-4.608,10.005-4.859c3.872-0.24,7.648,0.997,10.581,3.525
	c6.053,5.211,6.667,14.293,1.36,20.251c-1.968,2.213-1.744,5.584,0.512,7.525c1.029,0.885,2.299,1.317,3.568,1.317
	c1.509,0,3.008-0.613,4.085-1.824c7.515-8.448,8.096-20.448,2.411-29.547c17.355-10.005,31.168-0.208,31.813,0.267
	c0.123,0.091,0.272,0.112,0.4,0.187c0.117,0.075,0.192,0.192,0.315,0.261c10.347,5.461,16.779,16.027,16.779,27.563
	c0,4.181-0.923,8.224-2.533,12.011c-4.069-3.328-8.384-4.597-11.701-5.024c-1.995-8.459-8.315-15.472-16.965-18.197
	c-2.821-0.885-5.904,0.651-6.816,3.456c-0.917,2.8,0.656,5.808,3.515,6.704c5.936,1.872,10.005,7.248,10.133,13.381
	c0.112,5.157-2.635,10-7.147,12.64c-2.576,1.504-3.424,4.779-1.893,7.307c1.013,1.675,2.816,2.608,4.667,2.608
	c0.944,0,1.899-0.24,2.768-0.752c6.16-3.6,10.379-9.563,11.851-16.288c2.432,0.635,5.493,2.224,7.979,6.224
	c0.08,0.133,0.197,0.229,0.288,0.352c0.053,0.075,0.075,0.16,0.133,0.229c3.739,4.528,5.723,10.005,5.723,15.845
	C391.819,283.509,387.611,291.099,380.848,295.739z"/>
<path style="fill:#F6C358;" d="M115.136,255.797c-3.76,5.749-5.803,12.501-5.803,19.376c0,12.341,6.405,23.616,16.731,30.123
	c-2.779,5.461-4.235,11.472-4.235,17.669c0,17.813,11.867,33.093,28.832,37.995c0.309,16.299,13.893,29.461,30.544,29.461
	c4.32,0,8.507-0.875,12.373-2.565c5.397,9.056,15.323,14.805,26.341,14.805c16.837,0,30.544-13.472,30.544-30.032V335.92
	c0-5.579-1.44-10.949-4.197-15.723c2.752-4.971,4.197-10.517,4.197-16.24v-47.211c0-9.675-4.165-18.725-11.232-25.077
	c6.997-6,11.232-14.811,11.232-24.149v-76.736c0-11.829-9.792-21.451-21.824-21.451c-6.736,0-13.013,3.088-17.104,8.155
	c-2.624-0.789-5.371-1.205-8.139-1.205c-10.757,0-20.544,6.283-25.024,15.68c-15.035,1.365-26.944,13.477-27.68,28.432
	c-14.283,2.512-25.157,14.811-25.157,29.563c0,3.568,0.651,7.099,1.904,10.421c-11.285,7.797-18.107,20.533-18.107,34.299
	C109.333,242.165,111.323,249.397,115.136,255.797z"/>
<path style="fill:#FCD462;" d="M120.181,275.173c0-5.84,1.979-11.317,5.723-15.845c0.059-0.069,0.08-0.155,0.133-0.229
	c0.091-0.123,0.208-0.219,0.288-0.352c2.485-4,5.547-5.589,7.979-6.224c1.472,6.725,5.691,12.688,11.851,16.288
	c0.869,0.512,1.824,0.752,2.763,0.752c1.851,0,3.653-0.933,4.667-2.608c1.531-2.533,0.683-5.803-1.893-7.307
	c-4.512-2.64-7.259-7.483-7.147-12.64c0.128-6.128,4.203-11.509,10.133-13.381c2.853-0.896,4.427-3.899,3.515-6.704
	c-0.912-2.8-3.995-4.336-6.816-3.456c-8.651,2.725-14.971,9.739-16.965,18.197c-3.312,0.427-7.627,1.696-11.701,5.024
	c-1.611-3.787-2.533-7.829-2.533-12.011c0-11.536,6.432-22.101,16.779-27.563c0.123-0.064,0.203-0.187,0.315-0.261
	c0.128-0.08,0.277-0.096,0.4-0.187c0.645-0.475,14.459-10.277,31.813-0.267c-5.685,9.093-5.109,21.099,2.411,29.547
	c1.077,1.211,2.576,1.824,4.085,1.824c1.269,0,2.544-0.432,3.568-1.317c2.256-1.941,2.485-5.312,0.512-7.525
	c-5.301-5.957-4.693-15.04,1.36-20.251c2.933-2.533,6.709-3.765,10.587-3.525c3.888,0.251,7.445,1.979,10.005,4.859
	c1.989,2.224,5.408,2.437,7.653,0.507c2.256-1.941,2.485-5.312,0.512-7.525c-4.475-5.029-10.677-8.043-17.461-8.485
	c-5.541-0.347-10.907,1.131-15.493,4.069c-15.717-10.171-30.88-8-40.208-3.808c-0.411-1.563-0.635-3.179-0.635-4.805
	c0-9.131,6.485-16.763,15.147-18.789c1.072,4.651,3.429,10.976,8.539,14.219c0.912,0.576,1.931,0.853,2.939,0.853
	c1.781,0,3.525-0.859,4.56-2.437c1.627-2.475,0.907-5.776-1.611-7.376c-2.523-1.6-4.005-7.376-4.384-10.736
	c0.043-0.384,0.176-0.757,0.123-1.147c-0.123-0.875-0.197-1.776-0.197-2.683c0-9.195,6.565-16.875,15.323-18.843
	c0.501,6.48,2.437,16.72,9.36,24.379c4.896,5.413,11.445,8.507,19.333,9.461c2.923,5.803,8.928,9.376,15.328,9.376
	c1.867,0,3.755-0.304,5.616-0.939c2.827-0.971,4.325-4.011,3.339-6.789c-0.987-2.779-4.064-4.245-6.907-3.28
	c-3.269,1.131-6.848-0.581-7.989-3.803c-1.136-3.211,0.597-6.736,3.867-7.856c2.827-0.976,4.325-4.011,3.339-6.789
	c-0.992-2.784-4.107-4.251-6.907-3.28c-5.851,2.005-9.845,6.859-11.056,12.421c-3.989-0.917-7.243-2.741-9.808-5.573
	c-6.688-7.36-6.875-19.168-6.811-22.117c2.261-6.661,8.693-11.28,15.877-11.28c1.92,0,3.781,0.432,5.573,1.056
	c1.184,5.008,4.288,14.421,11.499,18.624c0.869,0.507,1.824,0.747,2.757,0.747c1.856,0,3.659-0.933,4.672-2.613
	c1.525-2.539,0.677-5.808-1.904-7.307c-3.328-1.936-5.611-7.952-6.571-12.299c1.989-3.131,5.413-5.163,9.211-5.163
	c6.053,0,10.976,4.837,10.976,10.784v76.731c0,7.211-3.797,13.936-9.851,17.829c-7.515-3.76-20.971-6.267-33.467,4.192
	c-2.283,1.909-2.555,5.28-0.613,7.52c1.077,1.237,2.603,1.877,4.133,1.877c1.243,0,2.496-0.416,3.515-1.269
	c11.328-9.483,22.053-2.619,23.232-1.803c0.069,0.048,0.149,0.053,0.219,0.096c0.123,0.08,0.219,0.181,0.347,0.251
	c7.696,4.08,12.48,11.952,12.48,20.539v47.221c0,4.661-1.413,9.136-4.043,12.992c-1.28,1.259-8.256,7.493-20.688,7.493
	c-0.395,0-0.789-0.005-1.195-0.016c-0.059-0.005-0.117-0.005-0.181-0.005c-2.912,0-5.317,2.277-5.413,5.163
	c-0.101,2.944,2.245,5.408,5.243,5.499c0.517,0.021,1.035,0.027,1.541,0.027c10.688,0,18.453-3.579,23.285-6.715
	c0.917,2.389,1.445,4.912,1.445,7.531v36.709c0,10.677-8.837,19.365-19.696,19.365c-8.539,0-16.064-5.36-18.715-13.333
	c-0.053-0.155-0.187-0.256-0.251-0.4c-0.181-0.421-0.331-0.853-0.635-1.232c-0.677-0.88-5.493-7.861,1.28-17.803
	c2.283,0.976,4.688,1.493,7.099,1.493c5.563,0,11.056-2.533,14.56-7.296c1.755-2.384,1.211-5.717-1.221-7.445
	c-2.421-1.723-5.813-1.195-7.573,1.2c-2.293,3.115-6.736,3.813-9.893,1.563c-3.168-2.251-3.883-6.613-1.595-9.723
	c1.755-2.384,1.205-5.723-1.221-7.445c-2.421-1.728-5.819-1.189-7.573,1.2c-4.331,5.893-4.405,13.557-0.816,19.435
	c-7.435,10.165-7.008,19.685-4.597,26.016c-2.384,0.981-4.928,1.547-7.568,1.547c-10.864,0-19.701-8.688-19.701-19.365
	c0-0.96,0.075-1.899,0.219-2.816c0.037-0.235-0.037-0.448-0.032-0.677c0.005-0.229,0.091-0.437,0.064-0.667
	c-0.992-9.344,5.995-16.155,6.069-16.219c2.171-2.027,2.261-5.408,0.203-7.541c-2.069-2.133-5.499-2.229-7.669-0.197
	c-0.363,0.341-7.339,7.125-9.077,17.557c-11.045-4.277-18.603-14.741-18.603-26.869c0-6.005,1.861-11.771,5.381-16.672
	c0.027-0.037,0.027-0.085,0.053-0.128c0.277-0.411,0.528-0.843,0.688-1.339c3.541-10.987,15.275-13.52,21.963-14.069
	c1.872,14.944,14.843,26.56,30.539,26.56c16.976,0,30.795-13.584,30.795-30.283c0-5.147-1.397-10.155-3.888-14.603
	c5.344-2.261,9.797-6.528,11.989-12.299c1.051-2.763-0.379-5.835-3.184-6.859c-2.8-1.029-5.931,0.368-6.976,3.131
	c-2.16,5.696-8.635,8.608-14.443,6.485c-5.803-2.123-8.757-8.496-6.597-14.192c1.045-2.763-0.379-5.835-3.189-6.864
	c-2.811-1.003-5.925,0.373-6.981,3.136c-4.251,11.211,1.573,23.733,12.971,27.915c1.472,0.539,2.971,0.869,4.469,1.088
	c0.064,0.085,0.08,0.187,0.155,0.267c3.109,3.557,4.827,8.096,4.827,12.795c0,10.816-8.949,19.616-19.947,19.616
	s-19.947-8.795-19.947-19.616c0-5.883,2.656-11.408,7.285-15.157c2.315-1.872,2.645-5.232,0.736-7.504
	c-1.899-2.277-5.312-2.597-7.632-0.725c-5.253,4.256-8.843,10-10.379,16.357c-7.808,0.411-22.747,3.003-30.208,15.723
	C124.384,291.099,120.181,283.509,120.181,275.173z"/>
</svg>